# xmcd
#
# Track frame offsets:
# 150
# 13799
# 24522
# 37602
# 45732
# 55634
# 67220
# 75580
# 85489
# 95085
# 104990
# 120431
# 127007
# 140283
#
# Disc length: 2077 seconds
#
#
# Revision: 0
# Processed by: cddbd v1.5.1PL2 Copyright (c) Steve Scherf et al.
# Submitted via: FreeRIP 2.944 
#
DISCID=bc081b0e
DTITLE=Singspiration - The Contemporary Hymnal
DYEAR=1982
DGENRE=Gospel
TTITLE0=In His Time
TTITLE1=Holy, Holy, Holy
TTITLE2=I Love You
TTITLE3=Sweet Adoration
TTITLE4=I'm Gonna Rise
TTITLE5=A Celebration of Praise
TTITLE6=O How He Loves You and Me
TTITLE7=Lift Him Up
TTITLE8=Light Of The World
TTITLE9=Sail On
TTITLE10=Learning To Lean
TTITLE11=Soon and Very Soon
TTITLE12=Jesus Got Ahold O' My Life
TTITLE13=Praise Medley
EXTD=
EXTT0=
EXTT1=
EXTT2=
EXTT3=
EXTT4=
EXTT5=
EXTT6=
EXTT7=
EXTT8=
EXTT9=
EXTT10=
EXTT11=
EXTT12=
EXTT13=
PLAYORDER=
